<svg width="24" height="24" viewBox="0 0 24 24" fill="none" xmlns="http://www.w3.org/2000/svg">
<g clip-path="url(#clip0_83_1211)">
<path d="M15.12 5L16.95 7H21V19H5V7H9.05L10.88 5H15.12ZM16 3H10L8.17 5H5C3.9 5 3 5.9 3 7V19C3 20.1 3.9 21 5 21H21C22.1 21 23 20.1 23 19V7C23 5.9 22.1 5 21 5H17.83L16 3ZM13 10C14.65 10 16 11.35 16 13C16 14.65 14.65 16 13 16C11.35 16 10 14.65 10 13C10 11.35 11.35 10 13 10ZM13 8C10.24 8 8 10.24 8 13C8 15.76 10.24 18 13 18C15.76 18 18 15.76 18 13C18 10.24 15.76 8 13 8Z" fill="currentColor"/>
</g>
<defs>
<clipPath id="clip0_83_1211">
<rect width="24" height="24" fill="white"/>
</clipPath>
</defs>
</svg>
