<svg width="20" height="20" viewBox="0 0 20 20" fill="none" xmlns="http://www.w3.org/2000/svg">
<g clip-path="url(#clip0_105_1093)">
<path d="M10 2C14.41 2 18 5.59 18 10C18 14.41 14.41 18 10 18C5.59 18 2 14.41 2 10C2 5.59 5.59 2 10 2ZM10 0C4.48 0 0 4.48 0 10C0 15.52 4.48 20 10 20C15.52 20 20 15.52 20 10C20 4.48 15.52 0 10 0Z" fill="#E7ECEE"/>
<g clip-path="url(#clip1_105_1093)">
<path d="M10 20C15.5228 20 20 15.5228 20 10C20 4.47715 15.5228 0 10 0C4.47715 0 0 4.47715 0 10C0 15.5228 4.47715 20 10 20Z" fill="#157BE9"/>
<path d="M6.0498 11.34L8.3798 13.8L14.0498 7.8" stroke="white" stroke-width="2" stroke-linecap="round" stroke-linejoin="round"/>
</g>
</g>
<defs>
<clipPath id="clip0_105_1093">
<rect width="20" height="20" fill="white"/>
</clipPath>
<clipPath id="clip1_105_1093">
<rect width="20" height="20" fill="white"/>
</clipPath>
</defs>
</svg>
