<svg width="50" height="50" viewBox="0 0 50 50" fill="none" xmlns="http://www.w3.org/2000/svg">
<path d="M42.1875 6.25H1.5625V37.5H42.1875V6.25ZM39.0625 34.375H4.6875V9.375H39.0625V34.375Z" fill="white"/>
<path d="M45.3125 14.0625V40.625H9.375V43.75H48.4375V14.0625H45.3125Z" fill="white"/>
<path d="M21.875 29.5371C25.752 29.5371 28.9062 26.1058 28.9062 21.8881C28.9062 17.6704 25.752 14.2391 21.875 14.2391C17.998 14.2391 14.8438 17.6703 14.8438 21.8881C14.8438 26.1059 17.998 29.5371 21.875 29.5371ZM21.875 17.3641C24.0289 17.3641 25.7812 19.3936 25.7812 21.8881C25.7812 24.3826 24.0289 26.4121 21.875 26.4121C19.7211 26.4121 17.9688 24.3826 17.9688 21.8881C17.9688 19.3936 19.7211 17.3641 21.875 17.3641ZM7.8125 13.2812H10.9375V30.4688H7.8125V13.2812ZM32.8125 13.2812H35.9375V30.4688H32.8125V13.2812Z" fill="white"/>
</svg>
