<svg width="30" height="30" viewBox="0 0 30 30" fill="none" xmlns="http://www.w3.org/2000/svg">
<path d="M20.4844 2.17188C21.7969 0.859375 23.9062 0.859375 25.2188 2.17188L25.8281 2.78125C27.1406 4.09375 27.1406 6.20312 25.8281 7.51562L16.5469 16.7969C16.1719 17.1719 15.6562 17.5 15.0938 17.6406L10.4062 19C10.0312 19.0938 9.60938 19 9.32812 18.6719C9 18.3906 8.90625 17.9688 9 17.5938L10.3594 12.9062C10.5 12.3438 10.8281 11.8281 11.2031 11.4531L20.4844 2.17188ZM23.625 3.76562C23.2031 3.34375 22.5 3.34375 22.0781 3.76562L20.6719 5.125L22.875 7.32812L24.2344 5.92188C24.6562 5.5 24.6562 4.79688 24.2344 4.375L23.625 3.76562ZM12.5156 13.5156L11.7188 16.2812L14.4844 15.4844C14.6719 15.4375 14.8125 15.3438 14.9531 15.2031L21.2812 8.875L19.125 6.71875L12.7969 13.0469C12.6562 13.1875 12.5625 13.3281 12.5156 13.5156ZM12.375 4C12.9844 4 13.5 4.51562 13.5 5.125C13.5 5.78125 12.9844 6.25 12.375 6.25H7.125C6.04688 6.25 5.25 7.09375 5.25 8.125V20.875C5.25 21.9531 6.04688 22.75 7.125 22.75H19.875C20.9062 22.75 21.75 21.9531 21.75 20.875V15.625C21.75 15.0156 22.2188 14.5 22.875 14.5C23.4844 14.5 24 15.0156 24 15.625V20.875C24 23.1719 22.125 25 19.875 25H7.125C4.82812 25 3 23.1719 3 20.875V8.125C3 5.875 4.82812 4 7.125 4H12.375Z" fill="currentColor"/>
</svg>
