<svg width="30" height="30" viewBox="0 0 30 30" fill="none" xmlns="http://www.w3.org/2000/svg">
<g clip-path="url(#clip0_260_1513)">
<path d="M23.9249 13.175C23.9749 12.8 23.9999 12.4125 23.9999 12C23.9999 11.6 23.9749 11.2 23.9124 10.825L26.4499 8.85C26.6749 8.675 26.7374 8.3375 26.5999 8.0875L24.1999 3.9375C24.0499 3.6625 23.7374 3.575 23.4624 3.6625L20.4749 4.8625C19.8499 4.3875 19.1874 3.9875 18.4499 3.6875L17.9999 0.5125C17.9499 0.2125 17.6999 0 17.3999 0H12.5999C12.2999 0 12.0624 0.2125 12.0124 0.5125L11.5624 3.6875C10.8249 3.9875 10.1499 4.4 9.53739 4.8625L6.54989 3.6625C6.27489 3.5625 5.96239 3.6625 5.81239 3.9375L3.42489 8.0875C3.27489 8.35 3.32489 8.675 3.57489 8.85L6.11239 10.825C6.04989 11.2 5.99989 11.6125 5.99989 12C5.99989 12.3875 6.02489 12.8 6.08739 13.175L3.54989 15.15C3.32489 15.325 3.26239 15.6625 3.39989 15.9125L5.79989 20.0625C5.94989 20.3375 6.26239 20.425 6.53739 20.3375L9.52489 19.1375C10.1499 19.6125 10.8124 20.0125 11.5499 20.3125L11.9999 23.4875C12.0624 23.7875 12.2999 24 12.5999 24H17.3999C17.6999 24 17.9499 23.7875 17.9874 23.4875L18.4374 20.3125C19.1749 20.0125 19.8499 19.6125 20.4624 19.1375L23.4499 20.3375C23.7249 20.4375 24.0374 20.3375 24.1874 20.0625L26.5874 15.9125C26.7374 15.6375 26.6749 15.325 26.4374 15.15L23.9249 13.175ZM14.9999 16.5C12.5249 16.5 10.4999 14.475 10.4999 12C10.4999 9.525 12.5249 7.5 14.9999 7.5C17.4749 7.5 19.4999 9.525 19.4999 12C19.4999 14.475 17.4749 16.5 14.9999 16.5Z" fill="currentColor"/>
</g>
<defs>
<clipPath id="clip0_260_1513">
<rect width="30" height="30" fill="white"/>
</clipPath>
</defs>
</svg>
