<svg width="23" height="27" viewBox="0 0 23 27" fill="none" xmlns="http://www.w3.org/2000/svg">
<path d="M11.375 13.25C7.76953 13.25 4.875 10.3555 4.875 6.75C4.875 3.19531 7.76953 0.25 11.375 0.25C14.9297 0.25 17.875 3.19531 17.875 6.75C17.875 10.3555 14.9297 13.25 11.375 13.25ZM15.8945 14.875C19.6523 14.875 22.75 17.9727 22.75 21.7305V23.8125C22.75 25.1836 21.6328 26.25 20.3125 26.25H2.4375C1.06641 26.25 0 25.1836 0 23.8125V21.7305C0 17.9727 3.04688 14.875 6.80469 14.875H7.66797C8.78516 15.4336 10.0547 15.6875 11.375 15.6875C12.6953 15.6875 13.9141 15.4336 15.0312 14.875H15.8945Z" fill="#7A7A7A"/>
</svg>
